<svg version="1.1" id="Layer_1" xmlns="http://www.w3.org/2000/svg" xmlns:xlink="http://www.w3.org/1999/xlink" x="0px" y="0px"
	 width="100%" viewBox="0 0 1920 1920" enable-background="new 0 0 1920 1920" xml:space="preserve">
<path fill="#63C1BB" opacity="1.000000" stroke="none" 
	d="
M416.895599,243.050888 
	C415.595795,235.681427 414.531647,228.260498 412.936829,220.955429 
	C410.921448,211.724075 408.473694,202.587097 406.212463,193.409409 
	C405.556274,193.102951 404.900055,192.796509 404.243866,192.490067 
	C397.008392,197.649872 389.299896,202.266220 382.627838,208.073349 
	C364.057373,224.236465 350.848511,244.508972 339.380219,266.094208 
	C323.595703,295.803253 310.842285,326.766510 300.696503,358.786896 
	C292.419434,384.909546 285.690308,411.449646 281.968414,438.656586 
	C280.165131,451.838593 278.360016,465.031830 277.079010,478.270630 
	C275.728333,492.229095 275.047089,506.251434 273.985840,520.239197 
	C273.275513,529.602173 272.412445,538.953552 271.522858,549.427307 
	C231.506653,546.696167 191.445679,543.961975 151.178406,541.213684 
	C151.481903,535.861206 151.664307,531.288391 152.013489,526.728394 
	C153.297836,509.956390 154.596466,493.185211 155.970490,476.420349 
	C156.912750,464.923584 157.639511,453.393219 159.100693,441.959381 
	C160.638000,429.929901 162.539597,417.915955 164.989578,406.041199 
	C168.995041,386.627106 172.597687,367.045837 178.150818,348.055786 
	C185.558640,322.723236 193.687134,297.502441 203.337753,272.953705 
	C212.238007,250.313721 222.977264,228.331039 233.976242,206.600311 
	C244.831955,185.152618 258.329620,165.296829 273.682312,146.676590 
	C290.009369,126.874634 308.816223,110.024353 330.347534,96.141838 
	C350.058533,83.432953 371.228241,73.998840 394.589111,71.207695 
	C426.341003,67.414001 455.416382,74.639732 480.193726,95.772675 
	C485.063782,99.926437 489.398560,104.707817 493.966370,109.904633 
	C484.936340,126.279556 475.931244,141.955978 466.901245,157.618088 
	C455.214325,177.888565 443.556305,198.175980 431.785736,218.397842 
	C426.956909,226.693848 421.866852,234.837784 416.895599,243.050888 
z"/>
<path fill="#63ADBE" opacity="1.000000" stroke="none" 
	d="
M539.050537,246.896454 
	C544.031555,234.123474 548.402161,221.069336 554.128296,208.639633 
	C564.169067,186.844040 574.290771,165.020172 585.813171,143.994339 
	C594.303589,128.501144 604.595825,113.911331 614.963379,99.553139 
	C626.684326,83.320648 640.510620,68.950325 656.092102,56.184135 
	C670.055237,44.743984 684.883423,34.855450 701.086731,26.982788 
	C720.125000,17.732723 740.087585,11.434103 761.141602,9.045135 
	C773.085327,7.689891 785.106445,7.016162 797.501953,6.447145 
	C796.529358,9.503911 795.233154,12.198050 793.751038,14.785673 
	C787.151672,26.307068 780.502014,37.799648 773.865356,49.299652 
	C763.246704,67.699806 752.624268,86.097755 742.002869,104.496315 
	C731.381531,122.894875 720.762085,141.294571 710.137085,159.691025 
	C698.433472,179.954895 686.722717,200.214630 675.018188,220.478027 
	C664.392456,238.873962 653.767273,257.270264 643.148682,275.670410 
	C632.364868,294.357056 621.589355,313.048553 610.810242,331.737946 
	C599.118530,352.009705 587.435852,372.286682 575.732422,392.551666 
	C565.108398,410.947632 554.464172,429.331940 543.824524,447.718811 
	C532.353333,467.542542 520.840454,487.342285 509.413025,507.191223 
	C497.404633,528.049377 485.513214,548.974792 473.502289,569.831421 
	C460.168060,592.985901 446.805054,616.124207 433.326599,639.194824 
	C431.295837,642.670837 428.569672,645.740601 426.165161,648.998352 
	C427.072083,637.033691 428.022095,625.072144 428.868774,613.103210 
	C429.334778,606.515564 429.729797,599.919434 429.974762,593.320374 
	C430.392365,582.069824 430.776215,570.815979 430.981079,559.559937 
	C431.699615,520.086487 432.369965,480.612091 432.952087,441.136444 
	C433.012329,437.048279 432.361969,432.949646 432.439117,428.384735 
	C434.170807,426.711548 435.912811,425.747864 436.775757,424.270660 
	C445.822174,408.784882 454.740204,393.223938 463.669617,377.669922 
	C475.658661,356.786255 487.587158,335.867706 499.613892,315.005737 
	C512.716309,292.277802 525.901489,269.597534 539.050537,246.896454 
z"/>
<path fill="#6397C1" opacity="1.000000" stroke="none" 
	d="
M924.361877,72.173943 
	C936.114441,89.187500 944.120422,108.009766 951.069275,128.421371 
	C954.351318,124.401695 957.223206,121.015648 959.953125,117.518745 
	C974.230225,99.230728 990.092102,82.542122 1007.824158,67.485016 
	C1026.727051,51.433723 1047.025635,37.580959 1069.144165,26.557125 
	C1086.368408,17.972534 1104.530151,12.031794 1123.885010,9.874757 
	C1139.653198,8.117458 1155.146240,8.899368 1170.768311,12.931474 
	C1165.595581,23.154343 1160.335083,32.751995 1154.859375,42.225174 
	C1135.595703,75.551903 1116.215942,108.811790 1097.001465,142.166824 
	C1094.639282,146.267395 1093.009155,150.789627 1091.039795,155.116486 
	C1083.903076,162.037415 1076.657959,168.850601 1069.651611,175.901199 
	C1054.001343,191.650223 1041.649658,209.845352 1030.512085,228.953476 
	C1007.634277,268.203766 992.494629,310.658691 978.733337,353.677856 
	C974.098694,368.166321 969.892883,382.791931 965.168762,398.421143 
	C926.344055,389.623291 887.239563,380.762024 847.916138,371.851135 
	C848.680969,364.900513 849.343750,358.547913 850.087158,352.204803 
	C851.023621,344.213898 852.542358,336.253235 852.891296,328.239502 
	C853.591919,312.150848 854.444580,296.003479 853.790466,279.939148 
	C853.108948,263.201233 850.811462,246.523605 849.048401,229.837799 
	C848.238281,222.170547 847.016907,214.546738 846.252075,206.321503 
	C853.031189,194.783157 859.630859,183.879135 866.032471,172.860016 
	C885.516663,139.321838 904.924377,105.739258 924.361877,72.173943 
z"/>
<path fill="#63A6BE" opacity="1.000000" stroke="none" 
	d="
M924.201172,71.909599 
	C904.924377,105.739258 885.516663,139.321838 866.032471,172.860016 
	C859.630859,183.879135 853.031189,194.783157 846.205933,205.891113 
	C842.924927,194.024139 840.140747,181.957489 836.943970,170.001160 
	C833.754395,158.071472 830.047058,146.002945 821.586182,136.845154 
	C817.574829,132.503387 810.873596,129.139343 804.971252,128.306244 
	C775.377930,124.129211 750.032654,133.462646 728.380859,154.006149 
	C705.698242,175.527695 690.457153,201.969391 677.118103,229.709991 
	C663.081909,258.900513 651.808594,289.176849 642.891174,320.304382 
	C636.264099,343.437012 629.426514,366.533386 623.722534,389.899719 
	C617.824829,414.059723 613.139465,438.517151 608.004639,462.861511 
	C603.781433,482.883972 599.646423,502.925201 595.533813,522.970703 
	C593.855347,531.151672 592.338928,539.365845 590.081909,547.833679 
	C588.255005,549.455017 586.846069,550.664185 585.971680,552.181458 
	C566.578491,585.829956 547.298096,619.543457 527.883240,653.179382 
	C509.964203,684.223938 491.863434,715.163574 473.933044,746.201599 
	C452.264740,783.710083 430.713745,821.286316 409.015472,858.777405 
	C407.855164,860.782227 405.801788,862.270264 404.164185,863.998840 
	C404.870178,856.486755 405.461975,848.961731 406.310394,841.465759 
	C407.434723,831.532166 408.778442,821.623535 409.993164,811.699951 
	C411.268005,801.285217 412.528625,790.868591 413.743927,780.446838 
	C414.542694,773.596924 415.263947,766.737854 415.995270,759.880310 
	C417.318054,747.476440 418.699921,735.078247 419.907898,722.663147 
	C420.736542,714.146606 421.254272,705.600281 422.015076,697.076538 
	C423.271118,683.003296 424.622284,668.938477 425.901093,654.867249 
	C426.051239,653.215393 425.998322,651.545105 426.102356,649.440857 
	C428.569672,645.740601 431.295837,642.670837 433.326599,639.194824 
	C446.805054,616.124207 460.168060,592.985901 473.502289,569.831421 
	C485.513214,548.974792 497.404633,528.049377 509.413025,507.191223 
	C520.840454,487.342285 532.353333,467.542542 543.824524,447.718811 
	C554.464172,429.331940 565.108398,410.947632 575.732422,392.551666 
	C587.435852,372.286682 599.118530,352.009705 610.810242,331.737946 
	C621.589355,313.048553 632.364868,294.357056 643.148682,275.670410 
	C653.767273,257.270264 664.392456,238.873962 675.018188,220.478027 
	C686.722717,200.214630 698.433472,179.954895 710.137085,159.691025 
	C720.762085,141.294571 731.381531,122.894875 742.002869,104.496315 
	C752.624268,86.097755 763.246704,67.699806 773.865356,49.299652 
	C780.502014,37.799648 787.151672,26.307068 793.751038,14.785673 
	C795.233154,12.198050 796.529358,9.503911 797.955505,6.511946 
	C815.372681,7.283236 832.587891,9.119450 849.203735,14.900363 
	C866.920044,21.064148 883.139526,29.609434 897.521484,41.836170 
	C907.808044,50.581242 916.660583,60.409733 924.201172,71.909599 
z"/>
<path fill="#EF404C" opacity="1.000000" stroke="none" 
	d="
M1027.045776,440.886047 
	C1056.435791,441.523071 1084.681519,447.532227 1111.787231,458.913971 
	C1112.383667,459.164398 1113.079102,459.178619 1113.601074,459.776123 
	C1089.386475,474.294830 1065.345703,488.420990 1041.199829,502.365295 
	C1011.729248,519.384705 982.143005,536.203918 952.656494,553.196045 
	C914.111450,575.408325 875.615417,597.705750 837.097839,619.965698 
	C800.736267,640.979736 764.370178,661.985840 728.013428,683.008057 
	C689.933228,705.026917 651.875305,727.084351 613.768127,749.056274 
	C609.363892,751.595642 604.706726,753.696350 600.166870,756.000488 
	C602.912781,746.381042 604.855103,736.436523 608.585571,727.215332 
	C614.788391,711.882935 621.967407,696.933044 629.088989,681.990601 
	C632.009399,675.863098 635.848999,670.173828 639.961060,664.129456 
	C642.650208,663.210999 644.784058,662.687866 646.624939,661.646545 
	C658.468628,654.947327 670.267517,648.168030 682.044617,641.352051 
	C704.445374,628.387512 726.806519,615.354431 749.212769,602.399475 
	C769.467102,590.688782 789.770325,579.062561 810.032349,567.365173 
	C830.723267,555.420227 851.375122,543.407471 872.071960,531.472961 
	C894.640259,518.459290 917.254883,505.525909 939.823181,492.512207 
	C962.963745,479.168549 986.107849,465.830505 1009.171631,452.355164 
	C1015.278625,448.787079 1021.095642,444.722595 1027.045776,440.886047 
z"/>
<path fill="#F88C28" opacity="1.000000" stroke="none" 
	d="
M1304.000000,1156.834229 
	C1290.953369,1159.560059 1277.994385,1162.858398 1264.838989,1164.874634 
	C1246.108765,1167.745361 1227.281006,1170.215698 1208.407471,1171.843262 
	C1191.812744,1173.274292 1175.097900,1173.311890 1158.183960,1173.510986 
	C1163.001099,1169.687012 1167.904663,1166.029419 1173.166138,1162.992432 
	C1211.411011,1140.917480 1249.765991,1119.032837 1288.011108,1096.958252 
	C1323.088135,1076.712280 1358.033081,1056.237549 1393.106812,1035.985596 
	C1429.047852,1015.232849 1465.103149,994.677795 1501.055298,973.944092 
	C1534.558594,954.622681 1567.991333,935.178772 1601.456909,915.791687 
	C1622.571167,903.559937 1643.635498,891.240479 1664.832520,879.153870 
	C1672.428711,874.822510 1680.348633,871.058655 1688.120728,867.035828 
	C1681.783813,877.819397 1675.990723,888.971619 1668.986816,899.303040 
	C1657.566528,916.149597 1645.640991,932.675842 1633.364746,948.910889 
	C1626.742920,957.668030 1618.969971,965.557129 1611.677734,973.803772 
	C1608.407104,977.502380 1605.041992,981.117432 1601.032837,984.898804 
	C1592.031006,989.464661 1583.587036,993.678040 1575.424683,998.380310 
	C1546.797485,1014.872559 1518.305786,1031.599609 1489.689819,1048.111572 
	C1460.062012,1065.207397 1430.322998,1082.110474 1400.681519,1099.182861 
	C1370.899170,1116.336182 1341.157593,1133.561035 1311.461548,1150.863159 
	C1308.738892,1152.449463 1306.476196,1154.825073 1304.000000,1156.834229 
z"/>
<path fill="#639BC0" opacity="1.000000" stroke="none" 
	d="
M559.833862,708.005493 
	C555.882019,730.064453 551.960938,752.129028 547.968750,774.180664 
	C544.732422,792.057129 541.255554,809.891479 538.171753,827.793823 
	C535.251160,844.748657 532.785583,861.781250 529.967957,878.754517 
	C527.152710,895.713684 524.026733,912.621765 521.266357,929.589539 
	C519.002808,943.503174 517.133667,957.480530 514.982422,971.413086 
	C513.182922,983.067627 511.168549,994.688904 509.360443,1006.342163 
	C507.827087,1016.225098 506.465363,1026.134521 505.004608,1036.028809 
	C503.113770,1048.836060 501.150970,1061.632935 499.315765,1074.448120 
	C498.315613,1081.432007 497.515045,1088.444580 496.613617,1095.529541 
	C478.766815,1093.349365 460.906036,1091.282471 443.079132,1088.956299 
	C426.493256,1086.792358 409.948456,1084.314819 393.373932,1082.061035 
	C389.462372,1081.529175 385.509918,1081.203247 381.565521,1081.035278 
	C377.945557,1080.880859 376.522217,1079.205078 376.998779,1075.677246 
	C378.645569,1063.487061 380.342712,1051.302979 381.870026,1039.097778 
	C383.033325,1029.801514 383.953156,1020.475037 385.014465,1011.165833 
	C385.292938,1008.722961 385.694702,1006.294250 386.441681,1003.382935 
	C387.711365,1001.970154 388.782288,1001.152771 389.414032,1000.077393 
	C393.366333,993.349487 397.196747,986.550110 401.111511,979.799927 
	C419.100189,948.782043 437.164490,917.807800 455.083588,886.749756 
	C472.175720,857.125061 489.078735,827.391357 506.144684,797.751465 
	C522.049133,770.128845 538.023376,742.546143 554.079773,715.011780 
	C555.582764,712.434326 557.896545,710.329712 559.833862,708.005493 
z"/>
<path fill="#F46B38" opacity="1.000000" stroke="none" 
	d="
M270.165833,1409.000122 
	C272.212341,1404.430176 274.013763,1399.730835 276.347992,1395.312866 
	C286.237152,1376.596313 296.284607,1357.963135 306.964722,1339.136475 
	C309.948090,1338.053101 312.385803,1337.386841 314.511353,1336.173706 
	C334.546082,1324.738037 354.556610,1313.259155 374.517975,1301.695801 
	C409.410828,1281.482910 444.224731,1261.133545 479.144562,1240.967529 
	C515.075317,1220.217773 551.121887,1199.668579 587.064636,1178.939575 
	C620.559265,1159.622437 653.961914,1140.145874 687.447083,1120.812378 
	C712.456726,1106.372314 737.557251,1092.089600 762.573792,1077.661255 
	C789.887207,1061.908325 817.175659,1046.111694 844.408325,1030.219727 
	C848.458801,1027.856201 852.143982,1024.866577 855.998169,1022.166565 
	C869.275452,1022.773254 882.557312,1023.294739 895.828125,1024.019775 
	C903.311096,1024.428589 910.775696,1025.172607 918.579346,1026.304810 
	C917.620667,1028.054932 916.499512,1029.552246 915.012085,1030.425659 
	C909.289368,1033.786255 903.402039,1036.865356 897.661133,1040.196167 
	C871.263916,1055.511353 844.932556,1070.940308 818.506287,1086.205078 
	C791.213379,1101.970337 763.814697,1117.552490 736.505371,1133.289673 
	C706.755798,1150.432983 677.027344,1167.613770 647.367737,1184.911987 
	C643.357910,1187.250610 639.801758,1190.367065 635.849487,1193.433594 
	C634.867371,1193.928955 633.979797,1193.946411 633.288696,1194.323853 
	C617.716431,1202.823975 601.738586,1210.681641 586.726807,1220.081055 
	C570.583618,1230.189331 555.289734,1241.665405 539.749939,1252.719971 
	C533.372131,1257.256958 527.320251,1262.251831 520.720581,1267.027710 
	C518.291992,1267.644409 516.072021,1267.933228 514.264343,1268.952881 
	C500.685455,1276.612549 487.159729,1284.367798 473.670471,1292.184570 
	C444.973450,1308.814209 416.328583,1325.534058 387.625366,1342.152832 
	C353.178497,1362.097290 318.709290,1382.002930 284.205627,1401.848877 
	C279.658844,1404.463989 274.852112,1406.627319 270.165833,1409.000122 
z"/>
<path fill="#6380C4" opacity="1.000000" stroke="none" 
	d="
M1228.894043,457.050385 
	C1216.732544,436.915100 1208.333984,415.161591 1202.089722,392.614960 
	C1197.088745,374.558197 1192.595581,356.335052 1188.659668,338.017609 
	C1185.781250,324.620575 1184.168945,310.951141 1182.002197,297.401550 
	C1181.333008,293.216766 1180.696777,289.026733 1180.442871,284.374207 
	C1184.359131,278.376068 1188.059570,272.949005 1191.364868,267.291138 
	C1205.753296,242.662109 1220.043945,217.975861 1234.337036,193.291245 
	C1247.966187,169.753387 1261.543335,146.185532 1275.197144,122.662094 
	C1275.802490,121.619324 1276.943359,120.887360 1277.834717,120.010635 
	C1281.226074,135.631317 1285.144287,151.161072 1287.859619,166.898407 
	C1290.532349,182.389328 1292.131592,198.073929 1293.928589,213.704941 
	C1295.485962,227.249496 1296.409180,240.869034 1298.076782,254.398239 
	C1299.697632,267.549194 1301.820190,280.641449 1303.889160,293.733124 
	C1305.444214,303.573547 1307.263184,313.372314 1308.562988,323.639069 
	C1306.603394,325.733398 1304.666870,327.155701 1303.547974,329.058716 
	C1295.227661,343.210419 1287.067749,357.456482 1278.861084,371.674957 
	C1267.172485,391.925934 1255.536377,412.207458 1243.776245,432.416779 
	C1238.951782,440.707306 1233.862793,448.843811 1228.894043,457.050385 
z"/>
<path fill="#636FC6" opacity="1.000000" stroke="none" 
	d="
M1346.099487,414.950256 
	C1353.616333,421.881165 1361.241821,428.809387 1371.860352,430.326385 
	C1377.099243,431.074799 1382.508301,431.111908 1387.796509,430.777679 
	C1389.704102,430.657135 1391.736938,428.767456 1393.281494,427.247192 
	C1407.153687,413.594208 1420.929810,399.843719 1435.104736,385.753418 
	C1463.756226,413.912292 1492.404419,442.068115 1521.011841,470.183746 
	C1520.543579,470.809174 1520.371094,471.101593 1520.140991,471.337982 
	C1507.161377,484.667725 1494.111328,497.929749 1481.208130,511.333099 
	C1462.325439,530.947815 1439.482300,543.313049 1412.944824,549.001526 
	C1396.508057,552.524902 1379.979980,552.582947 1363.260986,551.139893 
	C1342.531494,549.350525 1323.209351,543.181763 1304.870483,533.828491 
	C1297.628296,530.134888 1291.072754,525.094971 1284.339111,520.168579 
	C1285.239502,518.587158 1286.098877,517.559082 1286.757812,516.415527 
	C1303.371826,487.580414 1319.931030,458.713501 1336.593628,429.906494 
	C1339.548706,424.797546 1342.920166,419.929504 1346.099487,414.950256 
z"/>
<path fill="#638BC2" opacity="1.000000" stroke="none" 
	d="
M1277.773438,119.645615 
	C1276.943359,120.887360 1275.802490,121.619324 1275.197144,122.662094 
	C1261.543335,146.185532 1247.966187,169.753387 1234.337036,193.291245 
	C1220.043945,217.975861 1205.753296,242.662109 1191.364868,267.291138 
	C1188.059570,272.949005 1184.359131,278.376068 1180.503174,283.956665 
	C1178.116089,267.401520 1175.939819,250.813324 1174.055908,234.192001 
	C1172.520020,220.641113 1171.666626,207.007187 1169.904297,193.489136 
	C1167.918457,178.257462 1165.927490,162.934479 1159.776367,148.648148 
	C1156.748169,141.614639 1152.475220,134.779358 1145.513550,131.643494 
	C1141.443115,129.809952 1135.385010,130.331131 1130.909180,131.837448 
	C1116.934204,136.540695 1105.014160,145.096558 1093.424194,154.041824 
	C1092.918823,154.431976 1092.303223,154.679245 1091.389404,155.054779 
	C1093.009155,150.789627 1094.639282,146.267395 1097.001465,142.166824 
	C1116.215942,108.811790 1135.595703,75.551903 1154.859375,42.225174 
	C1160.335083,32.751995 1165.595581,23.154343 1170.997559,13.248813 
	C1177.156128,14.650824 1183.533447,15.806930 1189.340210,18.294973 
	C1209.917358,27.111656 1228.009277,39.686638 1242.875977,56.484539 
	C1259.087158,74.801620 1270.317993,96.008156 1277.773438,119.645615 
z"/>
<path fill="#F57135" opacity="1.000000" stroke="none" 
	d="
M636.035522,1193.123291 
	C639.801758,1190.367065 643.357910,1187.250610 647.367737,1184.911987 
	C677.027344,1167.613770 706.755798,1150.432983 736.505371,1133.289673 
	C763.814697,1117.552490 791.213379,1101.970337 818.506287,1086.205078 
	C844.932556,1070.940308 871.263916,1055.511353 897.661133,1040.196167 
	C903.402039,1036.865356 909.289368,1033.786255 915.012085,1030.425659 
	C916.499512,1029.552246 917.620667,1028.054932 918.953796,1026.504883 
	C921.623230,1025.784424 925.151978,1026.882935 925.948853,1022.163269 
	C928.198975,1021.429749 929.874268,1021.109131 931.273132,1020.306763 
	C944.639099,1012.639893 957.950439,1004.877686 971.292847,997.169617 
	C989.943542,986.394897 1008.612366,975.651428 1027.264526,964.879333 
	C1045.773438,954.189941 1064.220703,943.392395 1082.802612,932.831787 
	C1089.073242,929.268066 1095.673340,926.284485 1102.122925,923.035767 
	C1095.203613,936.757629 1088.044067,950.364868 1081.430176,964.232422 
	C1074.267578,979.250305 1067.614136,994.510986 1060.057861,1009.873535 
	C1052.224487,1013.943176 1044.984741,1017.653503 1037.935425,1021.695679 
	C1017.197815,1033.586914 996.545776,1045.627319 975.841431,1057.576538 
	C955.566223,1069.278198 935.258118,1080.922729 914.982178,1092.623047 
	C891.976501,1105.898560 868.947876,1119.135620 846.031860,1132.564453 
	C841.450439,1135.249268 837.331421,1138.723022 832.580811,1141.919922 
	C830.580078,1142.337402 829.011047,1142.853882 827.413208,1142.968628 
	C817.229980,1143.698975 806.923340,1143.596558 796.879089,1145.177368 
	C779.513062,1147.910522 762.079651,1150.791870 745.093811,1155.219604 
	C723.410522,1160.871826 701.959412,1167.584961 680.758850,1174.862061 
	C665.553223,1180.081421 650.922668,1186.976074 636.035522,1193.123291 
z"/>
<path fill="#F35F3D" opacity="1.000000" stroke="none" 
	d="
M1281.122925,655.035706 
	C1269.377808,672.229431 1257.626709,689.419006 1245.891846,706.619751 
	C1243.145630,710.645203 1240.454834,714.708374 1237.031982,718.886780 
	C1235.070801,719.333984 1233.679199,719.400085 1232.584595,720.004395 
	C1226.626953,723.293335 1220.723633,726.682373 1214.836060,730.096497 
	C1183.826782,748.078125 1152.861206,766.135681 1121.815918,784.055115 
	C1088.179199,803.470398 1054.439941,822.708191 1020.804077,842.125122 
	C992.059753,858.718384 963.437012,875.522461 934.689941,892.110962 
	C905.075439,909.199951 875.348328,926.093750 845.721069,943.160706 
	C818.254089,958.983215 790.832642,974.885376 763.457031,990.865234 
	C760.737061,992.452942 758.475647,994.826233 756.001343,996.834961 
	C745.878052,993.972412 735.721985,991.218872 725.648010,988.191956 
	C721.773193,987.027649 718.085388,985.240723 714.178345,983.068115 
	C715.423767,981.066711 716.603638,979.391663 718.213196,978.455139 
	C735.836670,968.201721 753.544861,958.094055 771.195251,947.886658 
	C798.314270,932.203430 825.382385,916.432068 852.516479,900.775146 
	C877.500793,886.358826 902.576660,872.100769 927.525085,857.622925 
	C931.249146,855.461853 934.496521,852.479126 938.134094,849.571594 
	C945.830627,845.163696 953.357483,841.060669 961.254761,836.964355 
	C962.403015,836.275024 963.180969,835.578979 964.079224,834.614258 
	C964.761780,834.215820 965.323914,834.085938 966.267822,833.964539 
	C968.175415,833.386536 969.803467,832.980530 971.210083,832.183594 
	C979.156372,827.681519 987.044067,823.076172 994.961853,818.523682 
	C1017.565979,805.526733 1040.198486,792.579102 1062.775269,779.534973 
	C1085.204712,766.576233 1107.546753,753.466187 1129.987793,740.528198 
	C1153.152832,727.172852 1176.425415,714.004028 1199.587769,700.644287 
	C1221.882324,687.785278 1244.053467,674.711792 1266.380371,661.909607 
	C1271.067261,659.222046 1276.197144,657.306824 1281.122925,655.035706 
z"/>
<path fill="#63B5BC" opacity="1.000000" stroke="none" 
	d="
M539.031250,246.476624 
	C525.901489,269.597534 512.716309,292.277802 499.613892,315.005737 
	C487.587158,335.867706 475.658661,356.786255 463.669617,377.669922 
	C454.740204,393.223938 445.822174,408.784882 436.775757,424.270660 
	C435.912811,425.747864 434.170807,426.711548 432.500854,427.957275 
	C432.109222,425.008850 432.103149,422.014832 431.989685,419.024902 
	C431.337311,401.832611 430.930145,384.625214 429.912506,367.454224 
	C428.938721,351.022705 427.640289,334.595428 425.902100,318.228180 
	C423.962128,299.961517 421.331116,281.768890 419.073761,263.535004 
	C418.266327,257.013000 417.671539,250.464645 416.937653,243.489594 
	C421.866852,234.837784 426.956909,226.693848 431.785736,218.397842 
	C443.556305,198.175980 455.214325,177.888565 466.901245,157.618088 
	C475.931244,141.955978 484.936340,126.279556 493.996704,110.248276 
	C499.240173,116.999687 505.208954,123.680595 509.489075,131.308975 
	C520.642456,151.187378 527.382141,172.716003 531.007812,195.201920 
	C533.739441,212.143295 536.348450,229.104446 539.031250,246.476624 
z"/>
<path fill="#F3643B" opacity="1.000000" stroke="none" 
	d="
M342.879028,1283.964233 
	C350.356201,1274.040039 357.189240,1263.539917 365.442444,1254.309570 
	C383.535553,1234.074585 401.524231,1213.621338 421.112823,1194.885498 
	C438.634705,1178.126587 457.656708,1162.763550 477.102753,1148.238281 
	C495.766541,1134.297363 515.228455,1121.182251 535.432129,1109.611694 
	C557.232178,1097.126953 579.903076,1085.949097 602.927002,1075.876465 
	C625.263428,1066.104614 648.180908,1057.318604 671.481506,1050.184082 
	C697.425598,1042.240234 723.998352,1036.246338 750.482300,1030.215088 
	C762.559448,1027.464722 775.081970,1026.675171 787.397278,1024.958618 
	C788.670105,1024.781250 789.907166,1024.347168 791.535217,1024.438477 
	C791.063599,1025.829590 790.403381,1027.133789 789.343201,1027.750000 
	C777.715576,1034.508789 766.013062,1041.138428 754.355469,1047.846191 
	C735.649048,1058.609497 716.957336,1069.398682 698.266479,1080.189209 
	C680.437866,1090.481812 662.621826,1100.796509 644.793518,1111.089844 
	C626.389465,1121.715576 607.974670,1132.322632 589.569458,1142.946655 
	C571.164734,1153.570312 552.766418,1164.205566 534.364624,1174.834595 
	C514.094727,1186.542725 493.824005,1198.249634 473.553802,1209.957275 
	C455.151703,1220.585693 436.752533,1231.219116 418.347168,1241.841919 
	C399.655121,1252.630005 381.006134,1263.494385 362.233917,1274.141479 
	C355.947510,1277.707031 349.339844,1280.706177 342.879028,1283.964233 
z"/>
<path fill="#F7852C" opacity="1.000000" stroke="none" 
	d="
M1726.122681,786.035156 
	C1722.638794,794.935791 1719.266724,803.882568 1715.625610,812.718445 
	C1713.711670,817.363037 1711.327026,821.813721 1708.628540,826.682434 
	C1706.709961,827.522278 1705.210449,827.844177 1703.941650,828.569397 
	C1687.503784,837.963806 1671.086304,847.393921 1654.688721,856.858704 
	C1636.567139,867.318542 1618.472046,877.824158 1600.364502,888.308167 
	C1581.969116,898.958862 1563.581421,909.622498 1545.174316,920.252747 
	C1526.909058,930.801086 1508.621582,941.311035 1490.347900,951.844910 
	C1471.644653,962.626526 1452.941284,973.408142 1434.246948,984.205139 
	C1414.257080,995.750366 1394.281250,1007.319885 1374.292480,1018.867126 
	C1355.599365,1029.666016 1336.892700,1040.441650 1318.200317,1051.242065 
	C1298.356445,1062.707764 1278.540649,1074.222168 1258.679321,1085.657349 
	C1237.808716,1097.673584 1216.879395,1109.587769 1196.010864,1121.607666 
	C1172.986938,1134.869019 1149.960205,1148.126953 1127.037354,1161.561401 
	C1122.454346,1164.247192 1118.333740,1167.721924 1114.000000,1170.832886 
	C1104.061401,1169.919800 1094.120850,1169.026123 1084.184692,1168.086792 
	C1077.168457,1167.423462 1070.157227,1166.704956 1063.145264,1165.997559 
	C1059.892212,1165.669556 1056.642456,1165.309448 1053.161621,1164.511230 
	C1053.835205,1163.102539 1054.577393,1161.872314 1055.666504,1161.232544 
	C1068.108643,1153.921753 1080.577148,1146.654907 1093.090210,1139.466064 
	C1116.249512,1126.160889 1139.473633,1112.968018 1162.615234,1099.631958 
	C1189.921387,1083.895874 1217.193604,1068.100342 1244.413818,1052.216675 
	C1248.462524,1049.854126 1252.145996,1046.865845 1255.998291,1044.166992 
	C1271.108398,1040.212036 1286.526611,1037.153076 1301.255371,1032.088989 
	C1322.650146,1024.733276 1343.757812,1016.428772 1364.603638,1007.619568 
	C1390.870972,996.519348 1415.309082,981.856323 1438.594482,965.518982 
	C1453.728760,954.900452 1467.901001,942.881958 1482.226196,931.151123 
	C1489.882324,924.881470 1496.948975,917.891968 1504.979370,911.104126 
	C1506.931152,910.665955 1508.333618,910.611877 1509.416626,909.996094 
	C1521.823242,902.943176 1534.197144,895.832092 1546.548950,888.683533 
	C1573.546143,873.058838 1600.523071,857.399109 1627.513062,841.762207 
	C1654.791138,825.958313 1682.043579,810.109863 1709.383301,794.413330 
	C1714.785767,791.311646 1720.533936,788.812256 1726.122681,786.035156 
z"/>
<path fill="#63A1BF" opacity="1.000000" stroke="none" 
	d="
M559.899658,707.589355 
	C557.896545,710.329712 555.582764,712.434326 554.079773,715.011780 
	C538.023376,742.546143 522.049133,770.128845 506.144684,797.751465 
	C489.078735,827.391357 472.175720,857.125061 455.083588,886.749756 
	C437.164490,917.807800 419.100189,948.782043 401.111511,979.799927 
	C397.196747,986.550110 393.366333,993.349487 389.414032,1000.077393 
	C388.782288,1001.152771 387.711365,1001.970154 386.504944,1002.953613 
	C388.085815,988.590820 390.080872,974.190674 391.900909,959.768555 
	C393.377655,948.066772 394.539429,936.325012 396.030426,924.625183 
	C397.891388,910.022156 399.954926,895.444885 401.913757,880.854187 
	C402.631012,875.511597 403.298981,870.162415 404.076782,864.407532 
	C405.801788,862.270264 407.855164,860.782227 409.015472,858.777405 
	C430.713745,821.286316 452.264740,783.710083 473.933044,746.201599 
	C491.863434,715.163574 509.964203,684.223938 527.883240,653.179382 
	C547.298096,619.543457 566.578491,585.829956 585.971680,552.181458 
	C586.846069,550.664185 588.255005,549.455017 589.766663,548.071045 
	C587.946594,559.620667 585.789551,571.204468 583.599854,582.782043 
	C579.738953,603.196167 575.870605,623.608948 571.981628,644.017761 
	C568.888550,660.249817 565.753174,676.473877 562.651245,692.704285 
	C561.730469,697.522400 560.859314,702.349976 559.899658,707.589355 
z"/>
<path fill="#FCAD18" opacity="1.000000" stroke="none" 
	d="
M789.120117,1705.036621 
	C782.262756,1715.340942 775.698120,1725.855835 768.473633,1735.895996 
	C759.497986,1748.369751 750.165344,1760.600098 740.625000,1772.649048 
	C734.294678,1780.643921 727.536621,1788.328735 720.590393,1795.799316 
	C713.741333,1803.165649 706.376221,1810.050171 699.303894,1817.211670 
	C677.966187,1838.818237 654.251038,1857.369751 628.399963,1873.309204 
	C599.226929,1891.296875 568.110107,1904.385376 534.443359,1910.905396 
	C521.939636,1913.326904 509.201324,1914.764282 496.502563,1915.888916 
	C483.184662,1917.068237 469.787994,1917.790527 456.421661,1917.853638 
	C445.904449,1917.903320 435.381073,1916.647339 424.493042,1915.572876 
	C425.100433,1914.305542 425.960052,1913.237305 427.067200,1912.597534 
	C445.311066,1902.055054 463.590271,1891.573853 481.852875,1881.063721 
	C500.401550,1870.388916 518.947144,1859.708618 537.482239,1849.010254 
	C557.740967,1837.317139 577.982300,1825.593994 598.238342,1813.896362 
	C616.627930,1803.276489 635.035828,1792.688477 653.419495,1782.058350 
	C673.525635,1770.432495 693.605286,1758.760864 713.711243,1747.134644 
	C732.380920,1736.339233 751.020935,1725.490845 769.778564,1714.849976 
	C776.059937,1711.286499 782.663696,1708.291382 789.120117,1705.036621 
z"/>
<path fill="#EF3850" opacity="1.000000" stroke="none" 
	d="
M1026.796631,440.533569 
	C1021.095642,444.722595 1015.278625,448.787079 1009.171631,452.355164 
	C986.107849,465.830505 962.963745,479.168549 939.823181,492.512207 
	C917.254883,505.525909 894.640259,518.459290 872.071960,531.472961 
	C851.375122,543.407471 830.723267,555.420227 810.032349,567.365173 
	C789.770325,579.062561 769.467102,590.688782 749.212769,602.399475 
	C726.806519,615.354431 704.445374,628.387512 682.044617,641.352051 
	C670.267517,648.168030 658.468628,654.947327 646.624939,661.646545 
	C644.784058,662.687866 642.650208,663.210999 640.266663,663.965820 
	C650.483704,648.908264 660.844910,633.681458 671.746521,618.851746 
	C686.804504,598.368164 705.130981,580.804504 723.415955,563.319214 
	C733.590759,553.589417 744.461914,544.422485 755.879761,536.196228 
	C773.301758,523.644226 790.979553,511.295105 809.464233,500.415253 
	C826.273743,490.521454 844.041382,482.113281 861.878357,474.151825 
	C876.529175,467.612457 891.613892,461.672760 907.027710,457.309326 
	C926.220093,451.876221 945.855164,447.846558 965.470825,444.113312 
	C985.600464,440.282257 1006.057983,439.481445 1026.796631,440.533569 
z"/>
<path fill="#F46839" opacity="1.000000" stroke="none" 
	d="
M342.579712,1284.126465 
	C349.339844,1280.706177 355.947510,1277.707031 362.233917,1274.141479 
	C381.006134,1263.494385 399.655121,1252.630005 418.347168,1241.841919 
	C436.752533,1231.219116 455.151703,1220.585693 473.553802,1209.957275 
	C493.824005,1198.249634 514.094727,1186.542725 534.364624,1174.834595 
	C552.766418,1164.205566 571.164734,1153.570312 589.569458,1142.946655 
	C607.974670,1132.322632 626.389465,1121.715576 644.793518,1111.089844 
	C662.621826,1100.796509 680.437866,1090.481812 698.266479,1080.189209 
	C716.957336,1069.398682 735.649048,1058.609497 754.355469,1047.846191 
	C766.013062,1041.138428 777.715576,1034.508789 789.343201,1027.750000 
	C790.403381,1027.133789 791.063599,1025.829590 791.953613,1024.505615 
	C813.021667,1023.453979 834.045837,1022.741455 855.534058,1022.097717 
	C852.143982,1024.866577 848.458801,1027.856201 844.408325,1030.219727 
	C817.175659,1046.111694 789.887207,1061.908325 762.573792,1077.661255 
	C737.557251,1092.089600 712.456726,1106.372314 687.447083,1120.812378 
	C653.961914,1140.145874 620.559265,1159.622437 587.064636,1178.939575 
	C551.121887,1199.668579 515.075317,1220.217773 479.144562,1240.967529 
	C444.224731,1261.133545 409.410828,1281.482910 374.517975,1301.695801 
	C354.556610,1313.259155 334.546082,1324.738037 314.511353,1336.173706 
	C312.385803,1337.386841 309.948090,1338.053101 307.270264,1338.965698 
	C318.683655,1320.734985 330.482025,1302.511963 342.579712,1284.126465 
z"/>
<path fill="#F99524" opacity="1.000000" stroke="none" 
	d="
M940.121582,1376.035034 
	C935.830017,1388.815430 931.785461,1401.685425 927.187439,1414.354614 
	C920.701172,1432.226318 913.866577,1449.972778 907.062012,1467.727295 
	C902.879883,1478.639404 898.475952,1489.466431 893.622925,1500.666382 
	C891.798706,1501.299805 890.364014,1501.318604 889.272156,1501.939941 
	C877.732910,1508.505615 866.237549,1515.148926 854.751160,1521.806885 
	C834.794922,1533.374268 814.862000,1544.981812 794.903687,1556.545532 
	C771.929810,1569.856323 748.983643,1583.216187 725.921082,1596.371826 
	C720.797363,1599.294678 715.237488,1601.453125 709.937866,1603.604980 
	C717.791016,1588.891846 725.918152,1574.706299 733.295227,1560.140747 
	C742.831543,1541.311890 751.894409,1522.239136 760.918396,1503.156616 
	C766.565674,1491.214355 771.765991,1479.060669 777.547485,1467.000488 
	C779.201599,1466.700928 780.629028,1466.676514 781.723938,1466.060669 
	C789.378113,1461.756836 796.965759,1457.334595 804.570312,1452.942627 
	C824.801819,1441.258301 845.032837,1429.573120 865.260681,1417.882324 
	C883.766968,1407.186768 902.217896,1396.393677 920.800659,1385.832764 
	C927.071594,1382.268921 933.671875,1379.284302 940.121582,1376.035034 
z"/>
<path fill="#FAA01E" opacity="1.000000" stroke="none" 
	d="
M709.878479,1603.963501 
	C715.237488,1601.453125 720.797363,1599.294678 725.921082,1596.371826 
	C748.983643,1583.216187 771.929810,1569.856323 794.903687,1556.545532 
	C814.862000,1544.981812 834.794922,1533.374268 854.751160,1521.806885 
	C866.237549,1515.148926 877.732910,1508.505615 889.272156,1501.939941 
	C890.364014,1501.318604 891.798706,1501.299805 893.453979,1501.000244 
	C877.464783,1536.897583 861.095886,1572.795898 844.054871,1608.887207 
	C841.453674,1610.028198 839.463379,1610.869751 837.605164,1611.940552 
	C821.507507,1621.217285 805.440186,1630.546875 789.350769,1639.837891 
	C770.675842,1650.621948 751.979736,1661.369141 733.307922,1672.158569 
	C713.486633,1683.611938 693.685120,1695.099609 673.871277,1706.565796 
	C650.899841,1719.859375 627.969177,1733.224365 604.916260,1746.375122 
	C599.794861,1749.296631 594.236938,1751.453003 589.027893,1753.650391 
	C596.860413,1746.649536 604.920227,1740.338257 612.137695,1733.177734 
	C621.867859,1723.524780 631.491333,1713.663330 640.180054,1703.085815 
	C652.720276,1687.819702 664.937866,1672.220703 676.262756,1656.042480 
	C688.103333,1639.127563 698.724365,1621.358887 709.878479,1603.963501 
z"/>
<path fill="#F7882A" opacity="1.000000" stroke="none" 
	d="
M1114.423828,1170.904053 
	C1118.333740,1167.721924 1122.454346,1164.247192 1127.037354,1161.561401 
	C1149.960205,1148.126953 1172.986938,1134.869019 1196.010864,1121.607666 
	C1216.879395,1109.587769 1237.808716,1097.673584 1258.679321,1085.657349 
	C1278.540649,1074.222168 1298.356445,1062.707764 1318.200317,1051.242065 
	C1336.892700,1040.441650 1355.599365,1029.666016 1374.292480,1018.867126 
	C1394.281250,1007.319885 1414.257080,995.750366 1434.246948,984.205139 
	C1452.941284,973.408142 1471.644653,962.626526 1490.347900,951.844910 
	C1508.621582,941.311035 1526.909058,930.801086 1545.174316,920.252747 
	C1563.581421,909.622498 1581.969116,898.958862 1600.364502,888.308167 
	C1618.472046,877.824158 1636.567139,867.318542 1654.688721,856.858704 
	C1671.086304,847.393921 1687.503784,837.963806 1703.941650,828.569397 
	C1705.210449,827.844177 1706.709961,827.522278 1708.467529,827.006104 
	C1704.272827,836.445435 1699.781982,845.926025 1695.119629,855.321533 
	C1693.184326,859.221436 1690.882935,862.939697 1688.434326,866.888184 
	C1680.348633,871.058655 1672.428711,874.822510 1664.832520,879.153870 
	C1643.635498,891.240479 1622.571167,903.559937 1601.456909,915.791687 
	C1567.991333,935.178772 1534.558594,954.622681 1501.055298,973.944092 
	C1465.103149,994.677795 1429.047852,1015.232849 1393.106812,1035.985596 
	C1358.033081,1056.237549 1323.088135,1076.712280 1288.011108,1096.958252 
	C1249.765991,1119.032837 1211.411011,1140.917480 1173.166138,1162.992432 
	C1167.904663,1166.029419 1163.001099,1169.687012 1157.757568,1173.432373 
	C1155.317749,1173.538208 1153.058105,1173.113037 1150.785645,1173.026611 
	C1140.389771,1172.631592 1129.988770,1172.368408 1119.593628,1171.958862 
	C1118.001221,1171.896118 1116.429199,1171.316162 1114.423828,1170.904053 
z"/>
<path fill="#F3643B" opacity="1.000000" stroke="none" 
	d="
M756.358337,997.021851 
	C758.475647,994.826233 760.737061,992.452942 763.457031,990.865234 
	C790.832642,974.885376 818.254089,958.983215 845.721069,943.160706 
	C875.348328,926.093750 905.075439,909.199951 934.689941,892.110962 
	C963.437012,875.522461 992.059753,858.718384 1020.804077,842.125122 
	C1054.439941,822.708191 1088.179199,803.470398 1121.815918,784.055115 
	C1152.861206,766.135681 1183.826782,748.078125 1214.836060,730.096497 
	C1220.723633,726.682373 1226.626953,723.293335 1232.584595,720.004395 
	C1233.679199,719.400085 1235.070801,719.333984 1236.720947,719.031250 
	C1231.124512,728.146057 1225.256714,737.333862 1219.107788,746.329651 
	C1212.114014,756.561646 1204.869141,766.622131 1197.038696,776.892151 
	C1194.345459,777.790771 1192.204834,778.306274 1190.370728,779.356873 
	C1174.389282,788.511658 1158.465820,797.767639 1142.519043,806.983032 
	C1124.129639,817.609985 1105.733765,828.225769 1087.341309,838.847595 
	C1067.081543,850.547607 1046.825439,862.253662 1026.562622,873.948303 
	C1008.023987,884.647949 989.476257,895.331726 970.936707,906.029846 
	C952.397522,916.727844 933.864624,927.437012 915.326843,938.137512 
	C895.064209,949.833435 874.792236,961.512939 854.537598,973.222717 
	C839.310364,982.026001 824.080811,990.825928 808.923279,999.747925 
	C807.327820,1000.686890 806.211487,1002.439880 804.872864,1003.815186 
	C798.381470,1003.210266 791.853882,1002.859314 785.407166,1001.940857 
	C775.813293,1000.573975 766.276428,998.806030 756.358337,997.021851 
z"/>
<path fill="#F88C28" opacity="1.000000" stroke="none" 
	d="
M940.434448,1375.843384 
	C933.671875,1379.284302 927.071594,1382.268921 920.800659,1385.832764 
	C902.217896,1396.393677 883.766968,1407.186768 865.260681,1417.882324 
	C845.032837,1429.573120 824.801819,1441.258301 804.570312,1452.942627 
	C796.965759,1457.334595 789.378113,1461.756836 781.723938,1466.060669 
	C780.629028,1466.676514 779.201599,1466.700928 777.601562,1466.638916 
	C778.417358,1463.421509 779.580994,1460.572510 780.698486,1457.705688 
	C791.332520,1430.424805 802.037964,1403.171265 812.545471,1375.841675 
	C816.333069,1365.990234 819.639771,1355.953979 823.558594,1346.000977 
	C825.651978,1345.521606 827.536560,1345.365845 829.025513,1344.516479 
	C849.504578,1332.836060 869.938965,1321.077026 890.364197,1309.302490 
	C910.786987,1297.529541 931.160522,1285.671143 951.610352,1273.945557 
	C959.943970,1269.167114 968.421814,1264.640381 976.834045,1259.999146 
	C972.543213,1274.612549 968.444214,1289.285889 963.916565,1303.825562 
	C957.111023,1325.680298 950.011169,1347.443481 943.018250,1369.239746 
	C942.325806,1371.397827 941.507263,1373.515381 940.434448,1375.843384 
z"/>
<path fill="#F7802E" opacity="1.000000" stroke="none" 
	d="
M1255.589233,1044.100220 
	C1252.145996,1046.865845 1248.462524,1049.854126 1244.413818,1052.216675 
	C1217.193604,1068.100342 1189.921387,1083.895874 1162.615234,1099.631958 
	C1139.473633,1112.968018 1116.249512,1126.160889 1093.090210,1139.466064 
	C1080.577148,1146.654907 1068.108643,1153.921753 1055.666504,1161.232544 
	C1054.577393,1161.872314 1053.835205,1163.102539 1052.758789,1164.433105 
	C1043.362671,1163.538696 1034.141357,1162.260254 1024.916748,1161.004639 
	C1019.251526,1160.233521 1013.581543,1159.497559 1007.888733,1158.742432 
	C1004.906921,1167.841553 1002.042908,1176.581421 998.661621,1185.703979 
	C977.395081,1197.953003 956.615662,1209.766724 935.904419,1221.698730 
	C911.161926,1235.953369 886.513123,1250.370972 861.735352,1264.563843 
	C857.337097,1267.083252 852.507629,1268.850098 847.929443,1270.569092 
	C852.709900,1254.449219 857.438171,1238.724609 862.533447,1222.993164 
	C865.184265,1222.026001 867.596130,1221.289795 869.731812,1220.069824 
	C887.321411,1210.022583 904.876465,1199.914551 922.410095,1189.769775 
	C955.894653,1170.395996 989.344116,1150.961670 1022.835449,1131.599609 
	C1043.105225,1119.881348 1063.441650,1108.278198 1083.720215,1096.574829 
	C1104.571167,1084.541016 1125.419312,1072.501343 1146.189697,1060.329468 
	C1149.665039,1058.292969 1152.739136,1055.571411 1155.998535,1053.166382 
	C1163.295898,1053.110962 1170.627319,1053.488037 1177.883667,1052.913818 
	C1195.327637,1051.533447 1212.754761,1049.878540 1230.150879,1047.986328 
	C1238.538086,1047.074097 1246.839722,1045.375732 1255.589233,1044.100220 
z"/>
<path fill="#FBA31D" opacity="1.000000" stroke="none" 
	d="
M588.880005,1753.961792 
	C594.236938,1751.453003 599.794861,1749.296631 604.916260,1746.375122 
	C627.969177,1733.224365 650.899841,1719.859375 673.871277,1706.565796 
	C693.685120,1695.099609 713.486633,1683.611938 733.307922,1672.158569 
	C751.979736,1661.369141 770.675842,1650.621948 789.350769,1639.837891 
	C805.440186,1630.546875 821.507507,1621.217285 837.605164,1611.940552 
	C839.463379,1610.869751 841.453674,1610.028198 843.749512,1609.060791 
	C838.288574,1620.295288 832.477112,1631.557617 826.624573,1642.798584 
	C824.372742,1647.123657 822.026978,1651.399902 819.006836,1655.858154 
	C816.233887,1656.519043 813.920593,1656.573364 812.161133,1657.588013 
	C785.986633,1672.683228 759.927185,1687.977905 733.755798,1703.078491 
	C704.127808,1720.173950 674.380737,1737.062988 644.747925,1754.150146 
	C611.091431,1773.557739 577.519226,1793.111084 543.882080,1812.552124 
	C517.430664,1827.840332 490.927917,1843.039673 464.463867,1858.305908 
	C438.863983,1873.073486 413.256104,1887.827759 387.740082,1902.739014 
	C385.180511,1904.234863 383.232513,1906.777222 381.000732,1908.833984 
	C369.440155,1905.134521 357.879639,1901.434937 346.283691,1897.106201 
	C347.089935,1895.688721 347.819397,1894.708008 348.790558,1894.141846 
	C359.527191,1887.879639 370.293060,1881.667603 381.066864,1875.469360 
	C403.621887,1862.493652 426.201416,1849.560303 448.742767,1836.560913 
	C471.855682,1823.231934 494.977570,1809.917358 517.993469,1796.422485 
	C522.566650,1793.741089 526.677734,1790.271729 531.330933,1787.000000 
	C540.704651,1782.462646 550.052673,1778.613403 558.715881,1773.584351 
	C569.076416,1767.570312 578.851379,1760.547607 588.880005,1753.961792 
z"/>
<path fill="#F57135" opacity="1.000000" stroke="none" 
	d="
M270.004944,1409.323730 
	C274.852112,1406.627319 279.658844,1404.463989 284.205627,1401.848877 
	C318.709290,1382.002930 353.178497,1362.097290 387.625366,1342.152832 
	C416.328583,1325.534058 444.973450,1308.814209 473.670471,1292.184570 
	C487.159729,1284.367798 500.685455,1276.612549 514.264343,1268.952881 
	C516.072021,1267.933228 518.291992,1267.644409 520.576050,1267.336670 
	C514.336792,1273.489014 507.626495,1279.101440 501.403900,1285.210815 
	C493.843811,1292.633423 486.513519,1300.311157 479.413605,1308.176147 
	C470.271667,1318.303223 460.652863,1328.142944 452.676941,1339.148193 
	C438.262787,1359.036743 424.914185,1379.697510 410.736755,1400.029663 
	C408.802338,1400.569336 407.121399,1400.889404 405.721832,1401.696899 
	C394.504059,1408.169556 383.363403,1414.775635 372.152985,1421.261108 
	C353.895752,1431.823853 335.600800,1442.321289 317.326904,1452.855225 
	C298.623535,1463.636841 279.963257,1474.494019 261.210632,1485.189331 
	C252.284088,1490.280273 243.187042,1495.072266 234.167297,1499.999878 
	C239.115952,1485.793701 243.588684,1471.398315 249.138123,1457.430908 
	C255.544632,1441.306030 262.900482,1425.558594 270.004944,1409.323730 
z"/>
<path fill="#FBA71B" opacity="1.000000" stroke="none" 
	d="
M381.403870,1908.903809 
	C383.232513,1906.777222 385.180511,1904.234863 387.740082,1902.739014 
	C413.256104,1887.827759 438.863983,1873.073486 464.463867,1858.305908 
	C490.927917,1843.039673 517.430664,1827.840332 543.882080,1812.552124 
	C577.519226,1793.111084 611.091431,1773.557739 644.747925,1754.150146 
	C674.380737,1737.062988 704.127808,1720.173950 733.755798,1703.078491 
	C759.927185,1687.977905 785.986633,1672.683228 812.161133,1657.588013 
	C813.920593,1656.573364 816.233887,1656.519043 818.702271,1656.030273 
	C809.323914,1672.277588 799.532837,1688.512817 789.430908,1704.892334 
	C782.663696,1708.291382 776.059937,1711.286499 769.778564,1714.849976 
	C751.020935,1725.490845 732.380920,1736.339233 713.711243,1747.134644 
	C693.605286,1758.760864 673.525635,1770.432495 653.419495,1782.058350 
	C635.035828,1792.688477 616.627930,1803.276489 598.238342,1813.896362 
	C577.982300,1825.593994 557.740967,1837.317139 537.482239,1849.010254 
	C518.947144,1859.708618 500.401550,1870.388916 481.852875,1881.063721 
	C463.590271,1891.573853 445.311066,1902.055054 427.067200,1912.597534 
	C425.960052,1913.237305 425.100433,1914.305542 424.065186,1915.503906 
	C413.717438,1914.415039 403.416473,1913.086914 393.149994,1911.531372 
	C389.327545,1910.952393 385.585602,1909.841919 381.403870,1908.903809 
z"/>
<path fill="#F25542" opacity="1.000000" stroke="none" 
	d="
M1276.106445,543.951294 
	C1283.883911,549.232056 1291.704102,554.451111 1299.428467,559.808533 
	C1310.348022,567.382263 1321.196777,575.058044 1332.336060,582.872742 
	C1331.098755,584.228088 1330.118164,585.302246 1328.593506,586.687744 
	C1326.481812,587.376099 1324.722534,587.415894 1323.375244,588.181213 
	C1304.182495,599.083618 1285.014404,610.030457 1265.901611,621.072815 
	C1232.423828,640.414429 1198.989258,659.830688 1165.534790,679.212585 
	C1144.427612,691.440979 1123.355591,703.731201 1102.181152,715.841919 
	C1096.920654,718.850586 1091.323608,721.270935 1086.028809,723.649292 
	C1103.141113,698.441895 1120.040161,673.501587 1137.166992,648.718689 
	C1138.978882,646.096863 1138.602661,644.651245 1136.992065,642.399414 
	C1133.882568,638.051514 1131.090576,633.476562 1128.512451,628.953003 
	C1141.085327,621.929260 1153.333740,614.985229 1165.534912,607.959167 
	C1185.783813,596.298889 1206.009277,584.597839 1226.231567,572.891479 
	C1242.866333,563.261780 1259.482178,553.599243 1276.106445,543.951294 
z"/>
<path fill="#F46839" opacity="1.000000" stroke="none" 
	d="
M1751.833984,433.001160 
	C1754.222534,444.931854 1756.854004,456.820526 1758.929321,468.805481 
	C1760.901123,480.192810 1762.350098,491.672852 1763.905029,503.128967 
	C1764.455566,507.184479 1764.740845,511.283997 1764.969849,515.373352 
	C1765.374634,522.605164 1765.643555,529.844604 1765.521484,537.540344 
	C1763.239990,538.647522 1761.256836,539.034363 1759.596558,539.984985 
	C1748.249512,546.481506 1736.986084,553.123596 1725.665894,559.667297 
	C1704.457886,571.926514 1683.267456,584.216858 1661.984497,596.344543 
	C1656.444092,599.501709 1650.588989,602.106689 1644.878418,604.965210 
	C1645.252319,586.063354 1646.214844,567.148743 1645.803223,548.263977 
	C1645.504028,534.529175 1643.387939,520.834045 1642.084106,507.120972 
	C1641.727295,503.367371 1641.378906,499.612946 1641.461914,495.422974 
	C1644.006348,494.064423 1646.213989,493.315704 1648.207642,492.188507 
	C1656.002441,487.781799 1663.729370,483.254639 1671.482056,478.773590 
	C1689.861084,468.150513 1708.211670,457.477631 1726.632812,446.928192 
	C1734.960571,442.158997 1743.429199,437.635925 1751.833984,433.001160 
z"/>
<path fill="#F46839" opacity="1.000000" stroke="none" 
	d="
M805.275940,1003.892456 
	C806.211487,1002.439880 807.327820,1000.686890 808.923279,999.747925 
	C824.080811,990.825928 839.310364,982.026001 854.537598,973.222717 
	C874.792236,961.512939 895.064209,949.833435 915.326843,938.137512 
	C933.864624,927.437012 952.397522,916.727844 970.936707,906.029846 
	C989.476257,895.331726 1008.023987,884.647949 1026.562622,873.948303 
	C1046.825439,862.253662 1067.081543,850.547607 1087.341309,838.847595 
	C1105.733765,828.225769 1124.129639,817.609985 1142.519043,806.983032 
	C1158.465820,797.767639 1174.389282,788.511658 1190.370728,779.356873 
	C1192.204834,778.306274 1194.345459,777.790771 1196.728760,777.035034 
	C1184.507568,795.430359 1171.903076,813.818970 1159.291748,832.202820 
	C1158.466553,833.405762 1157.588745,834.572693 1156.026978,835.887817 
	C1153.883179,836.347534 1152.261963,836.351868 1151.039917,837.052368 
	C1130.882080,848.608826 1110.766113,860.238647 1090.657715,871.881042 
	C1070.694092,883.439575 1050.774780,895.075073 1030.788818,906.594849 
	C1009.936829,918.613892 989.000854,930.487305 968.151550,942.510986 
	C940.979919,958.180786 913.823486,973.877808 886.752197,989.719727 
	C882.903198,991.972168 879.570923,995.107666 875.999512,997.834473 
	C870.775513,998.883545 865.591675,1000.509521 860.320129,1000.876831 
	C842.122925,1002.144714 823.895142,1002.973694 805.275940,1003.892456 
z"/>
<path fill="#F67B30" opacity="1.000000" stroke="none" 
	d="
M1155.561401,1053.097778 
	C1152.739136,1055.571411 1149.665039,1058.292969 1146.189697,1060.329468 
	C1125.419312,1072.501343 1104.571167,1084.541016 1083.720215,1096.574829 
	C1063.441650,1108.278198 1043.105225,1119.881348 1022.835449,1131.599609 
	C989.344116,1150.961670 955.894653,1170.395996 922.410095,1189.769775 
	C904.876465,1199.914551 887.321411,1210.022583 869.731812,1220.069824 
	C867.596130,1221.289795 865.184265,1222.026001 862.476318,1222.606689 
	C864.368652,1214.468140 866.647949,1206.697876 869.010254,1198.953125 
	C872.363525,1187.959473 875.777954,1176.984253 879.530762,1165.994385 
	C883.709900,1164.034180 887.615662,1162.238770 891.324036,1160.101074 
	C911.309204,1148.579590 931.219666,1136.928223 951.205627,1125.408203 
	C972.057739,1113.388916 992.989380,1101.507568 1013.844055,1089.492798 
	C1034.551147,1077.563110 1055.226440,1065.577637 1075.861572,1053.523926 
	C1079.055298,1051.658447 1081.959839,1049.297729 1084.998169,1047.166016 
	C1092.826538,1047.858521 1100.660645,1048.492798 1108.481079,1049.265381 
	C1113.197632,1049.731323 1117.878418,1050.636230 1122.601196,1050.946167 
	C1130.507080,1051.464844 1138.437012,1051.607788 1146.350342,1052.030396 
	C1149.284302,1052.187012 1152.200195,1052.686157 1155.561401,1053.097778 
z"/>
<path fill="#F46B38" opacity="1.000000" stroke="none" 
	d="
M876.415466,997.903320 
	C879.570923,995.107666 882.903198,991.972168 886.752197,989.719727 
	C913.823486,973.877808 940.979919,958.180786 968.151550,942.510986 
	C989.000854,930.487305 1009.936829,918.613892 1030.788818,906.594849 
	C1050.774780,895.075073 1070.694092,883.439575 1090.657715,871.881042 
	C1110.766113,860.238647 1130.882080,848.608826 1151.039917,837.052368 
	C1152.261963,836.351868 1153.883179,836.347534 1155.717285,836.030884 
	C1150.501099,844.767151 1144.728882,853.395081 1139.304199,862.236328 
	C1127.916260,880.796204 1116.709595,899.467346 1105.433594,918.095886 
	C1104.511719,919.618835 1103.627808,921.164734 1102.424561,922.867859 
	C1095.673340,926.284485 1089.073242,929.268066 1082.802612,932.831787 
	C1064.220703,943.392395 1045.773438,954.189941 1027.264526,964.879333 
	C1008.612366,975.651428 989.943542,986.394897 971.292847,997.169617 
	C957.950439,1004.877686 944.639099,1012.639893 931.273132,1020.306763 
	C929.874268,1021.109131 928.198975,1021.429749 926.267700,1021.966187 
	C929.917053,1010.996643 933.939453,1000.030640 937.992676,989.075989 
	C938.929993,986.542969 939.973022,984.049072 940.788269,981.989624 
	C919.475769,987.315491 898.153564,992.643860 876.415466,997.903320 
z"/>
<path fill="#F99524" opacity="1.000000" stroke="none" 
	d="
M278.954712,1854.111694 
	C262.413452,1839.460449 249.138702,1822.228149 239.000458,1802.650513 
	C234.292526,1793.559204 230.298630,1784.098022 226.297409,1774.379150 
	C228.124176,1773.275879 229.708435,1772.726074 231.134262,1771.901978 
	C260.517303,1754.918335 289.864838,1737.873047 319.269562,1720.927246 
	C323.662201,1718.395752 328.305908,1716.299927 333.011963,1714.347656 
	C333.452545,1715.276611 333.804260,1715.836670 333.963623,1716.447144 
	C338.522064,1733.910645 346.026733,1749.792847 358.547974,1763.082153 
	C368.508881,1773.654175 380.532410,1781.039062 393.476318,1786.695068 
	C384.823425,1791.718872 376.555328,1796.610718 368.244232,1801.428223 
	C345.173492,1814.801880 322.051941,1828.088013 299.023621,1841.533936 
	C292.209137,1845.512817 285.637634,1849.907593 278.954712,1854.111694 
z"/>
<path fill="#FAA01E" opacity="1.000000" stroke="none" 
	d="
M279.090546,1854.413818 
	C285.637634,1849.907593 292.209137,1845.512817 299.023621,1841.533936 
	C322.051941,1828.088013 345.173492,1814.801880 368.244232,1801.428223 
	C376.555328,1796.610718 384.823425,1791.718872 393.782990,1786.878174 
	C410.559723,1792.653076 427.282288,1795.923340 444.238434,1796.720581 
	C459.449310,1797.435669 474.751312,1796.339844 490.007599,1795.865723 
	C493.413544,1795.760010 496.842560,1795.118774 500.181488,1794.369751 
	C510.475586,1792.060303 520.731323,1789.579712 531.001953,1787.165771 
	C526.677734,1790.271729 522.566650,1793.741089 517.993469,1796.422485 
	C494.977570,1809.917358 471.855682,1823.231934 448.742767,1836.560913 
	C426.201416,1849.560303 403.621887,1862.493652 381.066864,1875.469360 
	C370.293060,1881.667603 359.527191,1887.879639 348.790558,1894.141846 
	C347.819397,1894.708008 347.089935,1895.688721 346.098999,1896.792236 
	C339.395111,1894.296265 332.450623,1892.141968 326.370239,1888.532227 
	C315.064087,1881.820435 304.105988,1874.483276 293.317871,1866.955322 
	C288.244263,1863.415039 283.900726,1858.828369 279.090546,1854.413818 
z"/>
<path fill="#F7802E" opacity="1.000000" stroke="none" 
	d="
M1726.435547,785.843506 
	C1720.533936,788.812256 1714.785767,791.311646 1709.383301,794.413330 
	C1682.043579,810.109863 1654.791138,825.958313 1627.513062,841.762207 
	C1600.523071,857.399109 1573.546143,873.058838 1546.548950,888.683533 
	C1534.197144,895.832092 1521.823242,902.943176 1509.416626,909.996094 
	C1508.333618,910.611877 1506.931152,910.665955 1505.281494,910.969116 
	C1513.702515,901.360718 1522.855835,892.047913 1531.243896,882.090393 
	C1540.186279,871.474548 1548.962891,860.631348 1556.799561,849.193909 
	C1566.814819,834.577026 1575.816772,819.265930 1585.934692,804.087646 
	C1590.501465,801.732483 1594.402588,799.567383 1598.274292,797.351318 
	C1619.134277,785.411133 1640.016235,773.509094 1660.834351,761.496338 
	C1685.524170,747.249329 1710.119873,732.838623 1734.848145,718.658752 
	C1739.381592,716.059143 1744.353394,714.223572 1749.122925,712.035400 
	C1745.948975,723.964661 1743.109741,735.995972 1739.510620,747.795593 
	C1735.627075,760.527344 1731.032715,773.042297 1726.435547,785.843506 
z"/>
<path fill="#F04649" opacity="1.000000" stroke="none" 
	d="
M603.168091,865.995117 
	C600.784241,857.105225 597.130188,848.333435 596.290955,839.300049 
	C594.723877,822.432678 594.791626,805.413513 594.896240,788.189087 
	C596.383240,787.621094 597.208984,787.417725 597.914734,787.007751 
	C613.961060,777.684753 629.965515,768.289612 646.035583,759.007751 
	C683.059204,737.623413 720.092407,716.255310 757.184998,694.991089 
	C761.286011,692.640076 765.797913,691.005981 769.974365,689.355347 
	C760.160339,703.343201 750.028687,716.716125 740.943604,730.765808 
	C730.501892,746.913208 722.334961,764.269043 717.971069,783.149170 
	C716.378418,790.039734 715.386230,797.069092 713.752197,804.056030 
	C703.566711,809.562683 693.693237,814.951355 683.942871,820.554382 
	C663.275757,832.430664 642.714233,844.491272 622.018188,856.316589 
	C615.891663,859.817200 609.459961,862.783813 603.168091,865.995117 
z"/>
<path fill="#F35B3F" opacity="1.000000" stroke="none" 
	d="
M1085.881348,723.961670 
	C1091.323608,721.270935 1096.920654,718.850586 1102.181152,715.841919 
	C1123.355591,703.731201 1144.427612,691.440979 1165.534790,679.212585 
	C1198.989258,659.830688 1232.423828,640.414429 1265.901611,621.072815 
	C1285.014404,610.030457 1304.182495,599.083618 1323.375244,588.181213 
	C1324.722534,587.415894 1326.481812,587.376099 1328.441406,586.998047 
	C1313.415894,608.984314 1297.996704,630.970276 1282.591064,652.965881 
	C1282.223022,653.491455 1282.009033,654.125122 1281.422974,654.871948 
	C1276.197144,657.306824 1271.067261,659.222046 1266.380371,661.909607 
	C1244.053467,674.711792 1221.882324,687.785278 1199.587769,700.644287 
	C1176.425415,714.004028 1153.152832,727.172852 1129.987793,740.528198 
	C1107.546753,753.466187 1085.204712,766.576233 1062.775269,779.534973 
	C1040.198486,792.579102 1017.565979,805.526733 994.961853,818.523682 
	C987.044067,823.076172 979.156372,827.681519 971.210083,832.183594 
	C969.803467,832.980530 968.175415,833.386536 966.418091,833.649536 
	C980.693604,822.487488 995.330261,811.816528 1009.650146,800.736023 
	C1016.277100,795.608276 1022.501831,789.904724 1028.528320,784.069336 
	C1039.217773,773.718811 1049.803223,763.246460 1060.080933,752.489685 
	C1068.935059,743.222961 1077.300049,733.489075 1085.881348,723.961670 
z"/>
<path fill="#6378C5" opacity="1.000000" stroke="none" 
	d="
M1345.952637,414.641296 
	C1342.920166,419.929504 1339.548706,424.797546 1336.593628,429.906494 
	C1319.931030,458.713501 1303.371826,487.580414 1286.757812,516.415527 
	C1286.098877,517.559082 1285.239502,518.587158 1284.187500,519.859680 
	C1279.473877,516.739685 1274.743774,513.761963 1270.671509,510.060364 
	C1253.980225,494.888275 1240.109619,477.413269 1228.950684,457.405518 
	C1233.862793,448.843811 1238.951782,440.707306 1243.776245,432.416779 
	C1255.536377,412.207458 1267.172485,391.925934 1278.861084,371.674957 
	C1287.067749,357.456482 1295.227661,343.210419 1303.547974,329.058716 
	C1304.666870,327.155701 1306.603394,325.733398 1308.497803,324.046814 
	C1313.175049,339.211975 1317.292603,354.487061 1321.916870,369.607239 
	C1326.940552,386.033722 1334.588135,401.162903 1345.952637,414.641296 
z"/>
<path fill="#F0424B" opacity="1.000000" stroke="none" 
	d="
M770.119263,689.039429 
	C765.797913,691.005981 761.286011,692.640076 757.184998,694.991089 
	C720.092407,716.255310 683.059204,737.623413 646.035583,759.007751 
	C629.965515,768.289612 613.961060,777.684753 597.914734,787.007751 
	C597.208984,787.417725 596.383240,787.621094 595.248291,787.939575 
	C596.520325,777.544495 598.157593,767.130371 599.980835,756.358398 
	C604.706726,753.696350 609.363892,751.595642 613.768127,749.056274 
	C651.875305,727.084351 689.933228,705.026917 728.013428,683.008057 
	C764.370178,661.985840 800.736267,640.979736 837.097839,619.965698 
	C875.615417,597.705750 914.111450,575.408325 952.656494,553.196045 
	C982.143005,536.203918 1011.729248,519.384705 1041.199829,502.365295 
	C1065.345703,488.420990 1089.386475,474.294830 1113.789795,460.099823 
	C1120.853760,463.250031 1127.602051,466.549683 1134.627930,470.347656 
	C1134.115356,471.634064 1133.447266,472.629578 1132.515991,473.178680 
	C1120.648071,480.176605 1108.774902,487.166901 1096.840332,494.050201 
	C1059.304932,515.698486 1021.730042,537.278320 984.226746,558.981873 
	C982.220398,560.142944 980.729858,562.195312 978.590576,563.903564 
	C976.932373,564.309143 975.700439,564.747864 974.430725,564.963440 
	C946.469788,569.710815 920.010498,579.245178 894.847412,591.903870 
	C877.879089,600.440125 861.791382,610.794189 845.632080,620.852722 
	C828.597107,631.456360 813.399475,644.516541 799.110779,658.531860 
	C789.101868,668.349243 779.759399,678.846069 770.119263,689.039429 
z"/>
<path fill="#F14E45" opacity="1.000000" stroke="none" 
	d="
M1275.959961,543.638428 
	C1259.482178,553.599243 1242.866333,563.261780 1226.231567,572.891479 
	C1206.009277,584.597839 1185.783813,596.298889 1165.534912,607.959167 
	C1153.333740,614.985229 1141.085327,621.929260 1128.357422,628.638611 
	C1123.581299,622.625549 1119.696533,616.534363 1114.941040,611.222778 
	C1107.395752,602.795288 1099.500732,594.643982 1091.297119,586.856812 
	C1086.629150,582.425781 1081.054199,578.950256 1076.204346,574.897705 
	C1077.047241,574.344116 1077.534058,573.869080 1078.105103,573.540222 
	C1109.430908,555.501648 1140.782349,537.507385 1172.077271,519.415466 
	C1177.192993,516.458130 1182.062500,513.075012 1187.045776,509.888641 
	C1195.914795,519.739807 1204.783691,529.590942 1214.052246,539.885864 
	C1220.265625,531.124878 1226.629150,522.152222 1233.144409,512.965576 
	C1247.552612,523.217285 1261.683105,533.271423 1275.959961,543.638428 
z"/>
<path fill="#F67732" opacity="1.000000" stroke="none" 
	d="
M1084.577881,1047.095459 
	C1081.959839,1049.297729 1079.055298,1051.658447 1075.861572,1053.523926 
	C1055.226440,1065.577637 1034.551147,1077.563110 1013.844055,1089.492798 
	C992.989380,1101.507568 972.057739,1113.388916 951.205627,1125.408203 
	C931.219666,1136.928223 911.309204,1148.579590 891.324036,1160.101074 
	C887.615662,1162.238770 883.709900,1164.034180 879.473694,1165.607788 
	C881.154114,1158.349976 883.256104,1151.471924 885.639282,1143.673828 
	C867.332397,1143.033691 850.165771,1142.433472 832.999207,1141.833130 
	C837.331421,1138.723022 841.450439,1135.249268 846.031860,1132.564453 
	C868.947876,1119.135620 891.976501,1105.898560 914.982178,1092.623047 
	C935.258118,1080.922729 955.566223,1069.278198 975.841431,1057.576538 
	C996.545776,1045.627319 1017.197815,1033.586914 1037.935425,1021.695679 
	C1044.984741,1017.653503 1052.224487,1013.943176 1059.745605,1010.061340 
	C1055.857788,1020.579041 1051.601685,1031.116699 1047.190796,1042.037354 
	C1059.631714,1043.715942 1071.894653,1045.370483 1084.577881,1047.095459 
z"/>
<path fill="#F88C28" opacity="1.000000" stroke="none" 
	d="
M332.833435,1714.002441 
	C328.305908,1716.299927 323.662201,1718.395752 319.269562,1720.927246 
	C289.864838,1737.873047 260.517303,1754.918335 231.134262,1771.901978 
	C229.708435,1772.726074 228.124176,1773.275879 226.247238,1773.995483 
	C222.751862,1764.690552 218.764221,1755.530273 216.686203,1745.955444 
	C213.165329,1729.732056 210.850204,1713.246948 208.463226,1696.429565 
	C217.190018,1691.532349 225.589493,1687.265381 233.753723,1682.588013 
	C259.336914,1667.930542 284.796692,1653.057617 310.385895,1638.410767 
	C316.370331,1634.985229 322.676453,1632.121948 328.903412,1629.432373 
	C328.314789,1637.378296 327.233795,1644.884888 327.110840,1652.407227 
	C326.967957,1661.148682 327.230865,1669.947510 328.103485,1678.642578 
	C329.290283,1690.468262 331.221466,1702.219360 332.833435,1714.002441 
z"/>
<path fill="#F7852C" opacity="1.000000" stroke="none" 
	d="
M847.877258,1270.964355 
	C852.507629,1268.850098 857.337097,1267.083252 861.735352,1264.563843 
	C886.513123,1250.370972 911.161926,1235.953369 935.904419,1221.698730 
	C956.615662,1209.766724 977.395081,1197.953003 998.489136,1186.043335 
	C997.555481,1190.679565 996.369385,1195.386963 994.982422,1200.034302 
	C989.082458,1219.803711 983.122925,1239.555298 977.009583,1259.656250 
	C968.421814,1264.640381 959.943970,1269.167114 951.610352,1273.945557 
	C931.160522,1285.671143 910.786987,1297.529541 890.364197,1309.302490 
	C869.938965,1321.077026 849.504578,1332.836060 829.025513,1344.516479 
	C827.536560,1345.365845 825.651978,1345.521606 823.617065,1345.633667 
	C826.190735,1336.657715 829.148376,1328.064331 831.995911,1319.434692 
	C837.323425,1303.289062 842.587036,1287.122314 847.877258,1270.964355 
z"/>
<path fill="#F35B3F" opacity="1.000000" stroke="none" 
	d="
M937.964417,849.876526 
	C934.496521,852.479126 931.249146,855.461853 927.525085,857.622925 
	C902.576660,872.100769 877.500793,886.358826 852.516479,900.775146 
	C825.382385,916.432068 798.314270,932.203430 771.195251,947.886658 
	C753.544861,958.094055 735.836670,968.201721 718.213196,978.455139 
	C716.603638,979.391663 715.423767,981.066711 714.001343,982.756958 
	C708.478638,980.690735 702.644104,978.841797 697.591675,975.724976 
	C686.278870,968.746033 675.348389,961.146484 664.287720,953.761536 
	C663.479126,953.221619 662.875916,952.374084 662.358154,951.220093 
	C670.542175,946.094666 678.517456,941.370361 686.553284,936.751343 
	C713.823181,921.076233 741.147705,905.495789 768.368103,889.735352 
	C773.455078,886.789978 778.157715,883.180786 783.464172,879.927856 
	C793.005737,880.984741 802.130066,882.877991 811.233704,882.783142 
	C823.692627,882.653259 836.192871,881.467957 848.572510,879.914612 
	C868.036316,877.472412 886.792175,872.009583 904.897217,864.501099 
	C916.027100,859.885437 926.949097,854.768494 937.964417,849.876526 
z"/>
<path fill="#F57135" opacity="1.000000" stroke="none" 
	d="
M1644.533447,605.211792 
	C1650.588989,602.106689 1656.444092,599.501709 1661.984497,596.344543 
	C1683.267456,584.216858 1704.457886,571.926514 1725.665894,559.667297 
	C1736.986084,553.123596 1748.249512,546.481506 1759.596558,539.984985 
	C1761.256836,539.034363 1763.239990,538.647522 1765.453369,537.998413 
	C1766.222168,551.053040 1766.991943,564.112305 1766.880981,577.164062 
	C1766.790161,587.828369 1765.647827,598.483704 1764.557983,609.614624 
	C1746.591187,620.137573 1729.015015,630.148987 1711.490967,640.250366 
	C1690.369019,652.425720 1669.329468,664.744568 1648.167114,676.848694 
	C1642.909302,679.856018 1637.315552,682.275879 1631.876221,684.965820 
	C1634.077271,673.996277 1636.527222,663.069275 1638.408325,652.045105 
	C1640.241455,641.302979 1641.569458,630.471497 1642.964355,619.659180 
	C1643.571655,614.951233 1643.792236,610.193481 1644.533447,605.211792 
z"/>
<path fill="#F04649" opacity="1.000000" stroke="none" 
	d="
M1186.909912,509.584625 
	C1182.062500,513.075012 1177.192993,516.458130 1172.077271,519.415466 
	C1140.782349,537.507385 1109.430908,555.501648 1078.105103,573.540222 
	C1077.534058,573.869080 1077.047241,574.344116 1075.840332,574.867188 
	C1055.853638,565.197632 1035.273315,560.671570 1013.744507,561.124695 
	C1002.148926,561.368652 990.580139,562.888550 978.999268,563.832764 
	C980.729858,562.195312 982.220398,560.142944 984.226746,558.981873 
	C1021.730042,537.278320 1059.304932,515.698486 1096.840332,494.050201 
	C1108.774902,487.166901 1120.648071,480.176605 1132.515991,473.178680 
	C1133.447266,472.629578 1134.115356,471.634064 1134.951294,470.506470 
	C1146.125610,477.739166 1157.477173,485.009216 1168.299805,492.996124 
	C1174.880005,497.852234 1180.643677,503.814972 1186.909912,509.584625 
z"/>
<path fill="#F67B30" opacity="1.000000" stroke="none" 
	d="
M211.166565,1598.999023 
	C212.974991,1588.274902 214.593781,1577.514404 216.646484,1566.837280 
	C218.606812,1556.640381 221.018875,1546.530518 223.919388,1536.151123 
	C231.779465,1531.783813 238.954529,1527.651245 246.125153,1523.510864 
	C265.804291,1512.147949 285.485413,1500.788452 305.158478,1489.415161 
	C328.132050,1476.134033 351.055847,1462.765625 374.106293,1449.619385 
	C378.180359,1447.295776 382.769073,1445.874634 387.061462,1444.401733 
	C376.375702,1469.189697 365.748657,1493.612793 354.742249,1518.029541 
	C351.128723,1519.639526 347.802063,1521.095459 344.675659,1522.898682 
	C324.690613,1534.426025 304.755157,1546.039185 284.792511,1557.605225 
	C264.255219,1569.504150 243.731827,1581.427490 223.138031,1593.227783 
	C219.304062,1595.424683 215.164902,1597.088989 211.166565,1598.999023 
z"/>
<path fill="#F67B30" opacity="1.000000" stroke="none" 
	d="
M1749.451172,711.816101 
	C1744.353394,714.223572 1739.381592,716.059143 1734.848145,718.658752 
	C1710.119873,732.838623 1685.524170,747.249329 1660.834351,761.496338 
	C1640.016235,773.509094 1619.134277,785.411133 1598.274292,797.351318 
	C1594.402588,799.567383 1590.501465,801.732483 1586.248901,803.939880 
	C1590.101440,795.288208 1594.648682,786.760071 1598.462891,777.915710 
	C1604.969238,762.828796 1611.015381,747.543396 1617.936157,732.130615 
	C1620.416138,731.075500 1622.288086,730.357910 1624.002075,729.366943 
	C1640.084961,720.068970 1656.132690,710.710205 1672.206665,701.396606 
	C1692.730591,689.504639 1713.232422,677.573914 1733.818726,665.790894 
	C1742.727051,660.692139 1751.822876,655.921265 1760.833618,651.001526 
	C1757.433838,669.592896 1754.033203,688.184082 1750.635132,706.775757 
	C1750.341675,708.381287 1750.064453,709.989746 1749.451172,711.816101 
z"/>
<path fill="#F35F3D" opacity="1.000000" stroke="none" 
	d="
M1751.889771,432.607117 
	C1743.429199,437.635925 1734.960571,442.158997 1726.632812,446.928192 
	C1708.211670,457.477631 1689.861084,468.150513 1671.482056,478.773590 
	C1663.729370,483.254639 1656.002441,487.781799 1648.207642,492.188507 
	C1646.213989,493.315704 1644.006348,494.064423 1641.531494,494.993561 
	C1639.482910,486.766998 1637.912964,478.508759 1636.089600,470.306885 
	C1633.494019,458.632629 1630.708984,447.000519 1628.023071,435.346283 
	C1627.913818,434.872681 1627.988647,434.356659 1628.289429,433.407104 
	C1634.946777,429.357391 1641.312866,425.796844 1647.633911,422.158051 
	C1670.213745,409.160004 1692.747925,396.082153 1715.366821,383.152374 
	C1722.406494,379.128204 1729.659912,375.477875 1736.815552,371.656433 
	C1741.549194,390.922791 1746.279541,410.190002 1751.026611,429.453064 
	C1751.257935,430.391571 1751.635864,431.293884 1751.889771,432.607117 
z"/>
<path fill="#F7852C" opacity="1.000000" stroke="none" 
	d="
M328.834625,1629.000000 
	C322.676453,1632.121948 316.370331,1634.985229 310.385895,1638.410767 
	C284.796692,1653.057617 259.336914,1667.930542 233.753723,1682.588013 
	C225.589493,1687.265381 217.190018,1691.532349 208.531982,1695.993896 
	C205.962280,1677.677979 205.715759,1659.315063 207.460663,1640.453491 
	C209.400314,1639.347412 210.992981,1638.856445 212.401627,1638.045532 
	C230.677032,1627.525146 248.928040,1616.962158 267.182007,1606.404541 
	C287.734833,1594.516968 308.258392,1582.578369 328.859192,1570.774536 
	C332.694641,1568.577026 336.834686,1566.911133 340.889923,1565.393311 
	C336.908691,1586.858032 332.871674,1607.928955 328.834625,1629.000000 
z"/>
<path fill="#F25542" opacity="1.000000" stroke="none" 
	d="
M783.037720,879.877991 
	C778.157715,883.180786 773.455078,886.789978 768.368103,889.735352 
	C741.147705,905.495789 713.823181,921.076233 686.553284,936.751343 
	C678.517456,941.370361 670.542175,946.094666 662.214478,950.909424 
	C653.989197,943.541687 645.843933,936.271240 638.283325,928.436646 
	C634.023315,924.022156 630.726868,918.677734 627.260376,913.251099 
	C644.025513,903.162537 660.527649,893.576782 677.027527,883.987305 
	C695.392334,873.314209 713.755188,862.637634 732.421692,852.095093 
	C738.321472,856.768188 743.680054,861.649048 749.568604,865.773315 
	C759.663391,872.843628 771.520691,876.021240 783.037720,879.877991 
z"/>
<path fill="#F14E45" opacity="1.000000" stroke="none" 
	d="
M732.118896,851.962524 
	C713.755188,862.637634 695.392334,873.314209 677.027527,883.987305 
	C660.527649,893.576782 644.025513,903.162537 627.207886,912.898315 
	C621.271118,903.634338 615.320129,894.398926 610.156494,884.742432 
	C607.136658,879.095093 605.373718,872.775696 603.106689,866.376831 
	C609.459961,862.783813 615.891663,859.817200 622.018188,856.316589 
	C642.714233,844.491272 663.275757,832.430664 683.942871,820.554382 
	C693.693237,814.951355 703.566711,809.562683 713.702881,804.497070 
	C714.053528,822.907288 720.023010,838.613220 732.118896,851.962524 
z"/>
<path fill="#F99524" opacity="1.000000" stroke="none" 
	d="
M1304.393066,1156.889648 
	C1306.476196,1154.825073 1308.738892,1152.449463 1311.461548,1150.863159 
	C1341.157593,1133.561035 1370.899170,1116.336182 1400.681519,1099.182861 
	C1430.322998,1082.110474 1460.062012,1065.207397 1489.689819,1048.111572 
	C1518.305786,1031.599609 1546.797485,1014.872559 1575.424683,998.380310 
	C1583.587036,993.678040 1592.031006,989.464661 1600.729980,985.035095 
	C1588.193359,997.413940 1575.482666,1010.013977 1562.304077,1022.104126 
	C1540.402710,1042.196899 1516.549683,1059.834473 1491.528564,1075.796997 
	C1476.672241,1085.274902 1461.294189,1093.974365 1445.863892,1102.505249 
	C1414.924316,1119.610596 1382.389404,1133.126221 1348.786255,1144.009399 
	C1334.248047,1148.718018 1319.460571,1152.656616 1304.393066,1156.889648 
z"/>
<path fill="#F7802E" opacity="1.000000" stroke="none" 
	d="
M340.834106,1564.999756 
	C336.834686,1566.911133 332.694641,1568.577026 328.859192,1570.774536 
	C308.258392,1582.578369 287.734833,1594.516968 267.182007,1606.404541 
	C248.928040,1616.962158 230.677032,1627.525146 212.401627,1638.045532 
	C210.992981,1638.856445 209.400314,1639.347412 207.529510,1639.993408 
	C208.452087,1626.611816 209.738388,1613.223877 211.095642,1599.417480 
	C215.164902,1597.088989 219.304062,1595.424683 223.138031,1593.227783 
	C243.731827,1581.427490 264.255219,1569.504150 284.792511,1557.605225 
	C304.755157,1546.039185 324.690613,1534.426025 344.675659,1522.898682 
	C347.802063,1521.095459 351.128723,1519.639526 354.690735,1518.422119 
	C350.290436,1534.214111 345.562256,1549.606934 340.834106,1564.999756 
z"/>
<path fill="#F67732" opacity="1.000000" stroke="none" 
	d="
M1760.902344,650.577148 
	C1751.822876,655.921265 1742.727051,660.692139 1733.818726,665.790894 
	C1713.232422,677.573914 1692.730591,689.504639 1672.206665,701.396606 
	C1656.132690,710.710205 1640.084961,720.068970 1624.002075,729.366943 
	C1622.288086,730.357910 1620.416138,731.075500 1618.250732,731.939453 
	C1621.235229,720.991638 1624.662842,710.046753 1627.900024,699.045776 
	C1629.221313,694.555542 1630.130249,689.943909 1631.551514,685.176636 
	C1637.315552,682.275879 1642.909302,679.856018 1648.167114,676.848694 
	C1669.329468,664.744568 1690.369019,652.425720 1711.490967,640.250366 
	C1729.015015,630.148987 1746.591187,620.137573 1764.489014,610.042847 
	C1763.982666,619.809753 1763.164307,629.622986 1762.262939,639.428711 
	C1761.933594,643.012695 1761.407349,646.578674 1760.902344,650.577148 
z"/>
<path fill="#F67732" opacity="1.000000" stroke="none" 
	d="
M387.120178,1444.036865 
	C382.769073,1445.874634 378.180359,1447.295776 374.106293,1449.619385 
	C351.055847,1462.765625 328.132050,1476.134033 305.158478,1489.415161 
	C285.485413,1500.788452 265.804291,1512.147949 246.125153,1523.510864 
	C238.954529,1527.651245 231.779465,1531.783813 224.245209,1535.939575 
	C226.339951,1526.783691 228.762955,1517.599121 231.272614,1508.438354 
	C231.989700,1505.820801 232.957825,1503.271973 233.989044,1500.345703 
	C243.187042,1495.072266 252.284088,1490.280273 261.210632,1485.189331 
	C279.963257,1474.494019 298.623535,1463.636841 317.326904,1452.855225 
	C335.600800,1442.321289 353.895752,1431.823853 372.152985,1421.261108 
	C383.363403,1414.775635 394.504059,1408.169556 405.721832,1401.696899 
	C407.121399,1400.889404 408.802338,1400.569336 410.677979,1400.387451 
	C408.986725,1404.241333 406.902100,1407.693848 404.966797,1411.228149 
	C398.987274,1422.147705 393.064819,1433.098389 387.120178,1444.036865 
z"/>
<path fill="#F35B3F" opacity="1.000000" stroke="none" 
	d="
M1736.839355,371.249817 
	C1729.659912,375.477875 1722.406494,379.128204 1715.366821,383.152374 
	C1692.747925,396.082153 1670.213745,409.160004 1647.633911,422.158051 
	C1641.312866,425.796844 1634.946777,429.357391 1628.239136,432.995911 
	C1624.529297,420.387634 1621.181519,407.737183 1617.605225,394.222870 
	C1656.838257,384.548615 1695.805420,374.939941 1735.119019,365.245850 
	C1735.732422,367.214661 1736.297729,369.028961 1736.839355,371.249817 
z"/>
<path fill="#F35B3F" opacity="1.000000" stroke="none" 
	d="
M961.254700,836.964355 
	C961.691956,836.302490 962.499634,835.647400 963.633057,834.937622 
	C963.180969,835.578979 962.403015,836.275024 961.254700,836.964355 
z"/>
</svg>